# xmcd
#
# Track frame offsets:
# 150
# 41935
# 83649
# 125538
# 159535
# 197150
# 225867
# 229305
# 269940
#
# Disc length: 3992 seconds
#
#
# Revision: 0
# Processed by: cddbd v1.5.2PL0 Copyright (c) Steve Scherf et al.
# Submitted via: FreeRIP 2.951 
#
DISCID=7a0f9609
DTITLE=Dylan and Grateful Dead - The Complete Interaction Disc 4
DYEAR=2003
DGENRE=blues
TTITLE0=Tears of Rage
TTITLE1=Rainy Day Woman
TTITLE2=Tears of Rage
TTITLE3=Highway 61 Revisited
TTITLE4=Positively 4th Street
TTITLE5=Honest with Me
TTITLE6=Band Intros
TTITLE7=Summer Days
TTITLE8=Rainy Day Woman
EXTD=
EXTT0=
EXTT1=
EXTT2=
EXTT3=
EXTT4=
EXTT5=
EXTT6=
EXTT7=
EXTT8=
PLAYORDER=
